HIERARCHY
ROOT Hips
{
	OFFSET -3.958830 18.904000 13.208200
	CHANNELS 6 Xposition Yposition Zposition Zrotation Yrotation Xrotation 
	JOINT LHipJoint
	{
		OFFSET 0.000000 0.000000 0.000000
		CHANNELS 3 Zrotation Yrotation Xrotation
		JOINT LeftUpLeg
		{
			OFFSET 1.800000 -1.400000 0.085000
			CHANNELS 3 Zrotation Yrotation Xrotation
			JOINT LeftLeg
			{
				OFFSET 2.215000 -6.000000 0.000000
				CHANNELS 3 Zrotation Yrotation Xrotation
				JOINT LeftFoot
				{
					OFFSET 2.500000 -6.900000 0.000000
					CHANNELS 3 Zrotation Yrotation Xrotation
					JOINT LeftToeBase
					{
						OFFSET 0.200000 -0.500000 1.950000
						CHANNELS 3 Zrotation Yrotation Xrotation
						End Site
						{
							OFFSET 0.000000 0.000000 0.000000
						}
					}
				}
			}
		}
	}
	JOINT RHipJoint
	{
		OFFSET 0.000000 0.000000 0.000000
		CHANNELS 3 Zrotation Yrotation Xrotation
		JOINT RightUpLeg
		{
			OFFSET -1.800000 -1.400000 0.085000
			CHANNELS 3 Zrotation Yrotation Xrotation
			JOINT RightLeg
			{
				OFFSET -2.215000 -6.000000 0.000000
				CHANNELS 3 Zrotation Yrotation Xrotation
				JOINT RightFoot
				{
					OFFSET -2.500000 -6.900000 0.000000
					CHANNELS 3 Zrotation Yrotation Xrotation
					JOINT RightToeBase
					{
						OFFSET -0.200000 -0.500000 1.950000
						CHANNELS 3 Zrotation Yrotation Xrotation
						End Site
						{
							OFFSET 0.000000 0.000000 0.000000
						}
					}
				}
			}
		}
	}
	JOINT LowerBack
	{
		OFFSET 0.000000 0.000000 0.000000
		CHANNELS 3 Zrotation Yrotation Xrotation
		JOINT Spine
		{
			OFFSET -0.087000 1.940000 -0.288900
			CHANNELS 3 Zrotation Yrotation Xrotation
			JOINT Spine1
			{
				OFFSET 0.000000 1.950000 0.060000
				CHANNELS 3 Zrotation Yrotation Xrotation
				JOINT Neck
				{
					OFFSET 0.000000 0.000000 0.000000
					CHANNELS 3 Zrotation Yrotation Xrotation
					JOINT Neck1
					{
						OFFSET 0.000000 1.600000 0.340000
						CHANNELS 3 Zrotation Yrotation Xrotation
						JOINT Head
						{
							OFFSET 0.000000 1.667000 -0.240000
							CHANNELS 3 Zrotation Yrotation Xrotation
							End Site
							{
								OFFSET 0.000000 0.000000 0.000000
							}
						}
					}
				}
				JOINT LeftShoulder
				{
					OFFSET 0.000000 0.000000 0.000000
					CHANNELS 3 Zrotation Yrotation Xrotation
					JOINT LeftArm
					{
						OFFSET 2.700000 1.550000 -0.730000
						CHANNELS 3 Zrotation Yrotation Xrotation
						JOINT LeftForeArm
						{
							OFFSET 5.450000 0.000000 0.000000
							CHANNELS 3 Zrotation Yrotation Xrotation
							JOINT LeftHand
							{
								OFFSET 3.450000 0.000000 0.000000
								CHANNELS 3 Zrotation Yrotation Xrotation
								JOINT LeftHandIndex1
								{
									OFFSET 0.750000 0.000000 0.000000
									CHANNELS 3 Zrotation Yrotation Xrotation
									End Site
									{
										OFFSET 0.000000 0.000000 0.000000
									}
								}
							}
						}
					}
				}
				JOINT RightShoulder
				{
					OFFSET 0.000000 0.000000 0.000000
					CHANNELS 3 Zrotation Yrotation Xrotation
					JOINT RightArm
					{
						OFFSET -2.700000 1.550000 -0.730000
						CHANNELS 3 Zrotation Yrotation Xrotation
						JOINT RightForeArm
						{
							OFFSET -5.450000 0.000000 0.000000
							CHANNELS 3 Zrotation Yrotation Xrotation
							JOINT RightHand
							{
								OFFSET -3.450000 0.000000 0.000000
								CHANNELS 3 Zrotation Yrotation Xrotation
								JOINT RightHandIndex1
								{
									OFFSET -0.750000 0.000000 0.000000
									CHANNELS 3 Zrotation Yrotation Xrotation
									End Site
									{
										OFFSET 0.000000 0.000000 0.000000
									}
								}
							}
						}
					}
				}
			}
		}
	}
}
MOTION
Frames: 12
Frame Time: 0.016667
0.407080 17.139290 -5.698240 3.157962 50.221533 -1.309763 -15.987795 11.264399 6.465688 28.463702 -5.626359 -25.146800 -57.273126 25.095984 22.729389 1.711598 11.443947 0.459266 0.412710 0.406620 0.362710 17.825825 -9.623959 1.209159 -6.537851 1.124934 -21.587000 -3.420819 -4.679572 33.441839 -0.364976 -3.929332 2.805555 0.234740 -0.233770 -0.017270 -1.602409 -2.342233 -8.428442 -7.740382 4.286349 23.220456 7.133429 5.312087 6.301121 3.253360 9.487106 -8.074309 16.789155 -17.411302 58.782423 10.882590 -7.915070 -7.501590 -27.143659 -1.680776 0.723072 -56.823448 -11.445896 -0.069092 -67.677336 -76.904105 49.600092 -3.606216 3.159327 0.399690 -0.219660 0.278140 -0.013380 23.180164 -0.725616 3.887542 47.068853 -8.638552 -17.847026 19.042924 65.576648 6.758530 2.127075 -1.619245 0.004830 0.141380 -0.118540 -0.144240 
0.427300 17.015250 -5.781420 6.427382 50.086113 1.261394 -16.051253 11.107157 6.832203 31.183922 -5.428176 -26.424884 -62.690961 26.584819 21.854949 1.828313 11.703703 0.385233 0.426020 0.411660 0.380580 17.809724 -9.547620 1.086842 -7.744497 1.034964 -23.520738 -6.957524 -3.811884 36.345429 -0.433740 -4.203955 2.685998 0.229420 -0.270450 -0.025050 -1.638472 -2.402641 -8.719723 -6.737130 4.132297 25.881564 6.504713 5.301432 3.981096 3.312490 8.511118 -7.800955 14.585829 -16.558828 62.122212 11.181560 -8.465220 -7.996300 -29.888433 -1.692851 0.248740 -55.582388 -8.479184 -4.111165 -54.431272 -68.718017 33.812610 -3.444975 3.245390 0.445260 -0.263480 0.311190 -0.022740 25.776126 0.248536 3.862122 44.825001 -10.135473 -17.857154 17.844960 59.077694 5.470701 2.149652 -1.538273 0.007400 0.145060 -0.121140 -0.151810 
0.464700 16.880580 -5.847240 10.145274 50.131439 4.127846 -16.115492 10.957987 7.105495 33.689239 -5.060126 -27.229033 -67.688892 27.836212 20.754714 1.927444 11.861386 0.348383 0.429300 0.406840 0.377790 17.790825 -9.510648 0.956432 -9.896027 0.674183 -25.273339 -10.024275 -3.121099 38.948011 -0.505050 -4.591159 2.528738 0.218920 -0.288190 -0.024910 -1.714318 -2.418013 -8.959434 -6.065555 3.924749 27.881373 5.921660 5.117438 1.852253 3.215105 7.475449 -7.510152 12.072833 -15.639939 64.849910 11.575360 -9.551630 -8.115640 -31.836584 -1.518489 -0.261857 -54.175376 -5.883681 -6.582362 -47.892814 -60.548738 24.778634 -3.384738 3.200889 0.469580 -0.293790 0.328820 -0.026610 27.921449 0.935742 3.835731 42.847452 -11.352762 -17.217843 16.880407 52.168551 4.413702 2.182406 -1.472387 0.015410 0.140740 -0.119090 -0.144520 
0.512680 16.738090 -5.900560 13.620124 49.703264 6.654830 -16.167370 10.868265 7.251589 35.888080 -4.449930 -26.965538 -71.546558 28.868446 19.670565 2.006903 11.931585 0.343012 0.431850 0.403320 0.374440 17.770943 -9.483223 0.884491 -12.458166 0.247295 -26.856902 -12.294323 -2.681352 41.163755 -0.574136 -5.002047 2.369528 0.208470 -0.302460 -0.027640 -1.799537 -2.447845 -9.164998 -5.246941 3.550471 29.334625 5.430271 4.757691 -0.000078 3.112179 6.300041 -7.231499 9.148652 -14.248370 66.973722 11.298330 -10.429740 -7.964730 -33.411887 -1.214938 -0.617277 -52.739717 -2.986573 -8.638383 -43.521514 -54.471418 19.122466 -3.338111 3.168220 0.474880 -0.316610 0.336760 -0.025910 29.693539 1.485367 3.769436 40.515609 -12.152454 -15.898468 17.867990 45.297108 4.085566 2.227693 -1.431923 0.027500 0.134910 -0.122220 -0.133830 
0.577390 16.610900 -5.953610 16.808248 49.375730 8.660954 -16.185510 10.856392 7.265419 37.376573 -3.989879 -25.718324 -73.306811 29.555692 19.126836 2.050023 11.956261 0.343618 0.430190 0.398060 0.351280 17.755637 -9.498252 0.871321 -15.567158 -0.338151 -28.005159 -13.329695 -2.775779 43.099555 -0.629886 -5.422204 2.211864 0.202090 -0.307500 -0.031500 -1.934827 -2.481798 -9.335452 -3.880507 2.910601 30.699401 4.730112 4.288527 -1.629895 2.994810 4.953891 -6.891986 5.694522 -12.648601 68.837137 10.777430 -11.605570 -7.552650 -34.904362 -0.793432 -1.041953 -50.548663 -0.220759 -9.980478 -41.289238 -49.082900 15.549658 -3.296442 3.165388 0.467530 -0.330990 0.330780 -0.017850 31.366388 1.882731 3.699768 38.156706 -12.856411 -14.533511 18.290198 38.890002 3.478165 2.257405 -1.407875 0.038690 0.127730 -0.120520 -0.117740 
0.648490 16.511080 -6.015540 19.364206 49.301196 10.137855 -16.167834 10.866908 7.188812 38.432146 -3.688640 -23.991543 -73.416218 30.129793 19.196230 2.069048 11.975963 0.336789 0.431890 0.393630 0.345930 17.764773 -9.514125 0.938562 -18.448731 -0.919675 -29.126713 -13.967197 -3.087475 45.238988 -0.698511 -5.875965 2.039672 0.195320 -0.320770 -0.033560 -2.138648 -2.487824 -9.490768 -1.562496 1.829453 31.873696 3.704714 3.613315 -2.994683 3.050267 3.816591 -6.719941 2.871514 -11.371799 69.927313 10.092690 -12.640360 -7.610390 -36.020595 -0.486337 -1.374667 -48.578067 2.358333 -11.035159 -38.903512 -44.260694 12.462072 -3.250135 3.160748 0.464310 -0.348110 0.330590 -0.018220 32.234618 2.062922 3.717674 36.411831 -13.596950 -13.442262 19.326989 34.055351 3.104977 2.286421 -1.384812 0.050070 0.119650 -0.121870 -0.107940 
0.732300 16.435290 -6.084300 21.375534 49.656729 11.266988 -16.114957 10.848912 7.046226 39.111289 -3.566787 -22.166612 -72.029202 30.487542 19.756554 2.076098 11.997736 0.336709 0.430610 0.383670 0.342440 17.808268 -9.561181 1.039023 -20.991185 -1.587028 -30.101074 -14.507884 -3.462967 47.157863 -0.770641 -6.301913 1.885689 0.184060 -0.324320 -0.035770 -2.419730 -2.359180 -9.593014 1.439526 0.562485 32.109224 2.372260 2.900713 -3.630545 3.265150 3.196739 -6.765000 1.523737 -11.190565 70.996053 9.244490 -13.849030 -7.138150 -36.328581 -0.113272 -1.658994 -47.264166 4.199115 -11.471227 -37.804607 -39.648602 10.296764 -3.223914 3.146143 0.456930 -0.356630 0.327790 -0.011710 31.928258 1.695450 3.779113 36.317504 -14.634310 -13.081342 21.344014 31.437806 3.052372 2.310330 -1.367021 0.059160 0.120440 -0.124980 -0.098640 
0.826720 16.381710 -6.162990 23.130801 50.235537 12.466961 -16.041175 10.834211 6.835408 39.035306 -3.633915 -20.578131 -69.017679 30.716672 21.057017 2.064961 12.025212 0.324161 0.427480 0.372140 0.350280 17.868431 -9.617179 1.178420 -23.325555 -2.289352 -31.082055 -14.941091 -3.881539 48.707689 -0.832522 -6.675049 1.750336 0.170980 -0.343220 -0.032270 -2.731979 -2.184628 -9.655228 4.628633 -0.811461 31.505137 0.933749 2.016123 -4.041583 3.672707 3.226920 -6.860656 1.889697 -11.773456 70.907442 7.653140 -14.409300 -6.433520 -36.310817 0.170214 -1.751056 -45.984235 5.972284 -11.607398 -37.469756 -34.856386 8.463943 -3.205622 3.145033 0.443270 -0.357160 0.325150 -0.015670 30.924001 0.819766 3.771374 37.073206 -15.805878 -13.243844 23.586680 30.715235 3.244347 2.330910 -1.371841 0.072420 0.101650 -0.130590 -0.101540 
0.926860 16.338760 -6.246680 24.311626 50.705345 13.545955 -15.927138 10.810115 6.569664 38.243180 -3.791156 -19.085314 -64.956641 30.515612 22.569523 2.017433 12.043122 0.311800 0.408310 0.336720 0.356410 17.969052 -9.684399 1.346398 -25.070578 -2.943674 -32.276810 -15.775750 -4.028250 49.788191 -0.874115 -6.967498 1.644792 0.154480 -0.355180 -0.033480 -3.157196 -1.963056 -9.690333 8.370632 -2.641612 29.820912 -0.888607 0.573358 -3.705256 3.997361 2.662463 -6.838316 0.728854 -11.073392 70.254818 5.239750 -14.231490 -5.761180 -35.224288 0.853604 -1.820116 -45.683475 7.151377 -11.659478 -37.209012 -30.964597 6.991313 -3.213592 3.121104 0.432750 -0.350530 0.309960 -0.029720 28.875353 -0.389377 3.592494 38.728135 -15.929457 -13.565743 26.413379 30.845423 3.729464 2.363827 -1.363487 0.067480 0.090160 -0.122170 -0.114860 
1.048520 16.327790 -6.339120 25.528539 51.001366 14.523537 -15.759923 10.838432 6.179843 36.189097 -4.061015 -16.638969 -60.372044 29.582667 23.731778 1.962152 11.974817 0.333197 0.379960 0.292070 0.363180 18.097021 -9.843842 1.517711 -26.437967 -3.583525 -33.228862 -16.919000 -3.920692 50.520290 -0.906105 -7.213828 1.561131 0.129890 -0.362810 -0.031370 -3.684913 -1.637794 -9.624205 12.608034 -4.366109 27.531726 -3.395008 -0.841915 -3.257067 4.459372 2.201155 -6.730285 -0.114465 -10.505553 69.076715 2.268920 -13.690980 -4.666670 -34.666138 1.353310 -1.830838 -44.778589 8.327107 -11.585915 -37.298739 -27.993113 5.985346 -3.218182 3.115044 0.410080 -0.332880 0.289030 -0.047300 26.970509 -1.643979 3.574649 40.596083 -16.328211 -14.020576 29.587548 31.643064 4.430446 2.393015 -1.377668 0.064810 0.072620 -0.112810 -0.127810 
1.172760 16.309070 -6.411480 26.717038 50.878108 15.857485 -15.606681 10.872691 5.753111 34.460662 -4.009156 -14.498986 -54.516667 28.348082 25.130491 1.870682 11.843700 0.369574 0.343450 0.237610 0.361740 18.233794 -9.969616 1.682313 -29.430220 -4.809355 -33.341823 -16.380912 -4.716362 48.977508 -0.859318 -7.160330 1.566609 0.098690 -0.365800 -0.023570 -4.108161 -1.351579 -9.523207 15.855862 -5.276171 24.428133 -5.159988 -1.770109 -2.539988 4.755668 1.933387 -6.648106 -0.715638 -10.311123 66.995368 -0.620360 -13.130670 -3.631100 -33.298664 2.217183 -1.808723 -44.483290 9.122013 -11.361654 -37.558344 -25.611879 5.280974 -3.244747 3.103438 0.386590 -0.309890 0.266090 -0.064210 24.622918 -3.108856 3.705379 42.819313 -17.075664 -14.614693 32.959073 32.644922 5.275737 2.413141 -1.401057 0.061820 0.049710 -0.099850 -0.139960 
1.299120 16.314630 -6.500840 27.999734 51.002883 16.930182 -15.429635 10.982374 5.231508 31.737086 -4.099623 -12.021189 -48.338800 26.620002 26.476117 1.756175 11.589956 0.446945 0.312070 0.187090 0.369080 18.381054 -10.157065 1.830760 -32.013488 -6.177842 -32.947223 -16.048190 -5.374707 47.038295 -0.818819 -7.078050 1.580603 0.068640 -0.375840 -0.016780 -4.567823 -1.076312 -9.316490 19.452125 -6.272202 21.195092 -7.431626 -2.828793 -1.578237 5.156691 1.419492 -6.627245 -1.836193 -9.864217 65.398077 -3.601660 -12.425410 -2.593420 -32.112254 2.796358 -1.756870 -44.135289 9.408069 -11.041709 -37.816342 -24.270373 4.968585 -3.259798 3.101189 0.366600 -0.292880 0.248750 -0.082280 22.193405 -4.208456 4.129497 45.122555 -17.722047 -15.145436 36.425674 33.685601 6.250353 2.432852 -1.430571 0.060470 0.025670 -0.091000 -0.153730 
